<?xml version="1.0" encoding="UTF-8"?>
<svg width="578px" height="205px" viewBox="0 0 578 205" version="1.1" xmlns="http://www.w3.org/2000/svg" xmlns:xlink="http://www.w3.org/1999/xlink">
    <defs>
        <radialGradient cx="23.6672794%" cy="21.271829%" fx="23.6672794%" fy="21.271829%" r="100%" gradientTransform="translate(0.236673,0.212718),scale(1.000000,0.866025),translate(-0.236673,-0.212718)" id="radialGradient-1">
            <stop stop-color="#BCC5F5" offset="0%"></stop>
            <stop stop-color="#677DEE" offset="100%"></stop>
        </radialGradient>
    </defs>
    <g id="Artboard" stroke="none" stroke-width="1" fill="none" fill-rule="evenodd">
        <g id="logo" transform="translate(17.000000, 24.000000)">
            <polygon id="Polygon" stroke="#676767" stroke-width="4" fill="url(#radialGradient-1)" fill-rule="nonzero" points="38 6.30940108 10.5551363 22.1547005 10.5551363 53.8452995 38 69.6905989 65.4448637 53.8452995 65.4448637 22.1547005"></polygon>
            <g id="Group" transform="translate(22.000000, 22.000000)" fill="#505050" fill-rule="nonzero">
                <path d="M33,6.5 L25.2033898,0 L23,2.5 L30.7966102,9 L33,6.5 Z M10,2.54716981 L7.79661017,0 L0,6.45283019 L2.20338983,9 L10,2.54716981 Z M17.4545455,10 L15,10 L15,20.1123596 L22.6909091,25 L24,22.9775281 L17.4545455,18.9325843 L17.4545455,10 Z M16.5,4 C8.44444444,4 2,10.4444444 2,18.5 C2,26.5555556 8.44444444,33 16.5,33 C24.5555556,33 31,26.5555556 31,18.5 C31,10.4444444 24.5555556,4 16.5,4 Z M16.5,30 C10.0928571,30 5,24.9071429 5,18.5 C5,12.0928571 10.0928571,7 16.5,7 C22.9071429,7 28,12.0928571 28,18.5 C28,24.9071429 22.9071429,30 16.5,30 Z" id="Shape"></path>
            </g>
            <rect id="Rectangle" stroke-opacity="0" stroke="#101010" x="0.5" y="0.5" width="75" height="75"></rect>
        </g>
        <path d="M119.24343,82 L122.612,71.962 L137.924,71.962 L141.293058,82 L149.168368,82 L134.818493,41.2727273 L125.717995,41.2727273 L111.36812,82 L119.24343,82 Z M135.932,66.028 L124.604,66.028 L130.109153,49.625 L130.427335,49.625 L135.932,66.028 Z M160.559254,82 L160.559254,41.2727273 L153.352312,41.2727273 L153.352312,82 L160.559254,82 Z M180.604912,82.6046697 C182.975326,82.6046697 185.080587,82.2407079 186.920697,81.5127841 C188.760807,80.7848603 190.276159,79.761334 191.466751,78.4422053 C192.657344,77.1230765 193.464761,75.5779474 193.889003,73.8068182 L193.889003,73.8068182 L187.159334,73.0430575 C186.835766,73.9074929 186.365122,74.6333452 185.747402,75.2206143 C185.129682,75.8078835 184.394559,76.2493712 183.542035,76.5450772 C182.689511,76.8407833 181.742267,76.9886364 180.700305,76.9886364 C179.128039,76.9886364 177.758573,76.6525361 176.591906,75.9803356 C175.42524,75.3081351 174.519064,74.3389856 173.873378,73.0728871 C173.227693,71.8067886 172.90485,70.2855853 172.90485,68.5092773 L172.907,68.701 L194.175181,68.7000621 L194.175181,66.4886364 C194.175181,63.8079131 193.805315,61.4957608 193.065584,59.5521795 C192.325852,57.6085982 191.309007,56.0090924 190.015047,54.7536621 C188.721086,53.4982318 187.234891,52.5682336 185.556462,51.9636674 C183.878032,51.3591013 182.100222,51.0568182 180.223032,51.0568182 C177.306366,51.0568182 174.76552,51.7230114 172.600496,53.0553977 C170.435472,54.3877841 168.754401,56.2438447 167.557283,58.6235795 C166.360165,61.0033144 165.761606,63.7628581 165.761606,66.9022106 C165.761606,70.0945934 166.358871,72.8673946 167.553399,75.2206143 C168.747927,77.573834 170.454167,79.3928149 172.672118,80.6775568 C174.890069,81.9622988 177.534334,82.6046697 180.604912,82.6046697 Z M172.940597,63.5431613 C173.039191,62.4582657 173.340175,61.446172 173.843549,60.5068803 C174.458783,59.3588571 175.322545,58.4328465 176.434835,57.7288485 C177.547125,57.0248506 178.841655,56.6728516 180.318425,56.6728516 C181.702598,56.6728516 182.914993,56.9830581 183.955609,57.6034712 C184.996226,58.2238844 185.807579,59.0736639 186.389669,60.1528098 C186.97176,61.2319558 187.265394,62.4636156 187.270573,63.8477894 L187.270573,63.8477894 L172.919,63.848 L172.940597,63.5431613 Z M206.584369,82 L206.584369,64.0385742 C206.584369,62.7447177 206.883337,61.5999571 207.481275,60.6042924 C208.079212,59.6086278 208.897194,58.829072 209.935221,58.265625 C210.973248,57.702178 212.15255,57.4204545 213.473129,57.4204545 C214.074899,57.4204545 214.703909,57.4648881 215.360159,57.5537553 C216.016409,57.6426225 216.501035,57.7361506 216.814038,57.8343395 L216.814038,57.8343395 L216.814038,51.2239879 C216.479906,51.1550071 216.063587,51.101925 215.565082,51.0647417 C215.066576,51.0275583 214.61846,51.0089666 214.220732,51.0089666 C212.470732,51.0089666 210.91566,51.490227 209.555516,52.4527477 C208.195371,53.4152684 207.23689,54.779504 206.680072,56.5454545 L206.680072,56.5454545 L206.36189,56.5454545 L206.36189,51.4545455 L199.377426,51.4545455 L199.377426,82 L206.584369,82 Z M233.535178,82.419989 L233.948073,82.4135742 C234.971599,82.3870591 235.836035,82.2935828 236.541379,82.1331454 C237.246724,81.972708 237.792873,81.8275479 238.179829,81.6976651 L238.179829,81.6976651 L236.9708,76.0816317 C236.766758,76.1267904 236.476438,76.1831868 236.09984,76.2508212 C235.723242,76.3184556 235.313603,76.3522727 234.870925,76.3522727 C234.266255,76.3522727 233.718033,76.2587965 233.22626,76.0718439 C232.734487,75.8848914 232.342094,75.5375533 232.049081,75.0298295 C231.756067,74.5221058 231.609561,73.7856889 231.609561,72.8205788 L231.609561,72.8205788 L231.609,57.023 L237.623011,57.0227273 L237.623011,51.4545455 L231.609,51.455 L231.609561,44.1363636 L224.402618,44.1363636 L224.402,51.455 L220.07547,51.4545455 L220.07547,57.0227273 L224.402,57.023 L224.402618,73.997603 C224.392758,75.7894748 224.754174,77.2971374 225.486867,78.5205907 L225.649556,78.7784091 C226.491412,80.0457505 227.634204,80.9817042 229.077934,81.5862704 C230.521663,82.1908366 232.145043,82.4666045 233.948073,82.4135742 L233.535178,82.419989 Z M267.468646,82 L267.468646,76.0340909 L251.957282,76.0340909 L251.957282,75.7792969 L266.943522,56.3705167 L266.943522,51.4545455 L242.904947,51.4545455 L242.904947,57.4204545 L258.129823,57.4204545 L258.129823,57.6749379 L242.379823,77.4339045 L242.379823,82 L267.468646,82 Z M293.798211,82 L293.798211,53.9524592 L294.164244,53.9524592 L305.427694,81.872603 L310.709388,81.872603 L321.973149,54.0161577 L322.338871,54.0161577 L322.338871,82 L329.434574,82 L329.434574,41.2727273 L320.398087,41.2727273 L308.307177,70.7837802 L307.829905,70.7837802 L295.738996,41.2727273 L286.702508,41.2727273 L286.702508,82 L293.798211,82 Z M345.057236,82.6205167 C346.653324,82.6205167 348.042676,82.3977791 349.225293,81.9523038 C350.40791,81.5068285 351.3956,80.9168664 352.188361,80.1824174 C352.981123,79.4479685 353.595011,78.6538086 354.030025,77.7999379 L354.030025,77.7999379 L354.268661,77.7999379 L354.268661,82 L361.189116,82 L361.189116,61.5568182 C361.189116,59.533795 360.821892,57.846147 360.087443,56.4938743 C359.352994,55.1416016 358.381876,54.0690326 357.17409,53.2761674 C355.966304,52.4833023 354.631277,51.9151944 353.169008,51.5718439 C351.706739,51.2284934 350.243744,51.0568182 348.780025,51.0568182 C346.642862,51.0568182 344.693326,51.3716856 342.931415,52.0014205 C341.169503,52.6311553 339.678026,53.5724432 338.456983,54.8252841 C337.235939,56.078125 336.360266,57.6325758 335.829963,59.4886364 L335.829963,59.4886364 L342.543786,60.4431818 C342.906919,59.3985263 343.601544,58.4903823 344.627659,57.71875 C345.653775,56.9471177 347.048461,56.5613015 348.811719,56.5613015 C350.490045,56.5613015 351.771369,56.9722863 352.655691,57.794256 C353.540013,58.6162257 353.982174,59.7749171 353.982174,61.2703303 L353.982174,61.2703303 L353.982174,61.3977273 C353.982174,62.0844283 353.728312,62.5895108 353.220588,62.912975 C352.712864,63.2364391 351.902806,63.4744022 350.790412,63.6268643 C349.678019,63.7793265 348.223,63.9537464 346.425355,64.1501243 C344.9432,64.3092152 343.510708,64.5617306 342.127881,64.9076705 C340.745054,65.2536103 339.503451,65.7646484 338.403072,66.4407848 C337.302693,67.1169212 336.431681,68.020456 335.790035,69.1513894 C335.148389,70.2823227 334.827566,71.7068389 334.827566,73.4249379 C334.827566,75.4295247 335.275682,77.1139101 336.171915,78.4780939 C337.068148,79.8422778 338.287845,80.8737275 339.831006,81.5724432 C341.374167,82.2711589 343.116244,82.6205167 345.057236,82.6205167 Z M346.918475,77.3226651 C345.425755,77.3226651 344.196167,76.9839237 343.22971,76.3064409 C342.263253,75.628958 341.780025,74.6313772 341.780025,73.3136985 C341.780025,72.3856682 342.024617,71.626672 342.513801,71.0367099 C343.002985,70.4467478 343.671146,69.9867202 344.518284,69.6566273 C345.365423,69.3265344 346.324577,69.0872248 347.395748,68.9386985 C347.873021,68.8724106 348.437141,68.7935384 349.088108,68.7020819 C349.739076,68.6106253 350.397967,68.5045647 351.064782,68.3839 C351.731597,68.2632354 352.330829,68.1240308 352.862478,67.9662864 C353.394128,67.808542 353.777924,67.6341738 354.013867,67.4431818 L354.013867,67.4431818 L354.013867,71.0385742 C354.013867,72.173547 353.724221,73.2169596 353.144927,74.1688121 C352.565633,75.1206647 351.745009,75.8842699 350.683057,76.459628 C349.621104,77.0349861 348.366244,77.3226651 346.918475,77.3226651 Z M374.775454,82 L374.775454,64.1022727 C374.78084,62.6333748 375.057955,61.3805856 375.606798,60.3439054 C376.155641,59.3072251 376.915931,58.5157582 377.88767,57.9695046 C378.859409,57.4232511 379.975014,57.1501243 381.234483,57.1501243 C383.090544,57.1501243 384.547582,57.7261556 385.605599,58.8782182 C386.663616,60.0302808 387.189931,61.628492 387.184545,63.6728516 L387.184545,63.6728516 L387.184545,82 L394.391538,82 L394.391538,62.5592152 C394.396874,60.1144354 393.964708,58.0362586 393.09499,56.3246848 C392.225272,54.6131111 391.005575,53.3072399 389.435899,52.4070712 C387.866223,51.5069025 386.02865,51.0568182 383.923182,51.0568182 C381.642879,51.0568182 379.729852,51.5612793 378.184101,52.5702015 C376.638351,53.5791238 375.518086,54.9360056 374.823306,56.6408469 L374.823306,56.6408469 L374.457273,56.6408469 L374.457273,51.4545455 L367.568512,51.4545455 L367.568512,82 L374.775454,82 Z M409.632356,82.6205167 C411.228444,82.6205167 412.617796,82.3977791 413.800414,81.9523038 C414.983031,81.5068285 415.97072,80.9168664 416.763482,80.1824174 C417.556243,79.4479685 418.170131,78.6538086 418.605146,77.7999379 L418.605146,77.7999379 L418.843782,77.7999379 L418.843782,82 L425.764236,82 L425.764236,61.5568182 C425.764236,59.533795 425.397012,57.846147 424.662563,56.4938743 C423.928114,55.1416016 422.956997,54.0690326 421.749211,53.2761674 C420.541425,52.4833023 419.206397,51.9151944 417.744128,51.5718439 C416.281859,51.2284934 414.818865,51.0568182 413.355146,51.0568182 C411.217983,51.0568182 409.268446,51.3716856 407.506535,52.0014205 C405.744624,52.6311553 404.253147,53.5724432 403.032103,54.8252841 C401.81106,56.078125 400.935386,57.6325758 400.405083,59.4886364 L400.405083,59.4886364 L407.118906,60.4431818 C407.482039,59.3985263 408.176664,58.4903823 409.20278,57.71875 C410.228895,56.9471177 411.623582,56.5613015 413.386839,56.5613015 C415.065166,56.5613015 416.34649,56.9722863 417.230811,57.794256 C418.115133,58.6162257 418.557294,59.7749171 418.557294,61.2703303 L418.557294,61.2703303 L418.557294,61.3977273 C418.557294,62.0844283 418.303432,62.5895108 417.795708,62.912975 C417.287985,63.2364391 416.477926,63.4744022 415.365533,63.6268643 C414.253139,63.7793265 412.79812,63.9537464 411.000476,64.1501243 C409.51832,64.3092152 408.085829,64.5617306 406.703002,64.9076705 C405.320174,65.2536103 404.078571,65.7646484 402.978192,66.4407848 C401.877814,67.1169212 401.006801,68.020456 400.365155,69.1513894 C399.723509,70.2823227 399.402686,71.7068389 399.402686,73.4249379 C399.402686,75.4295247 399.850803,77.1139101 400.747036,78.4780939 C401.643268,79.8422778 402.862965,80.8737275 404.406127,81.5724432 C405.949288,82.2711589 407.691364,82.6205167 409.632356,82.6205167 Z M411.493595,77.3226651 C410.000875,77.3226651 408.771287,76.9839237 407.80483,76.3064409 C406.838374,75.628958 406.355146,74.6313772 406.355146,73.3136985 C406.355146,72.3856682 406.599737,71.626672 407.088921,71.0367099 C407.578105,70.4467478 408.246266,69.9867202 409.093405,69.6566273 C409.940543,69.3265344 410.899698,69.0872248 411.970868,68.9386985 C412.448141,68.8724106 413.012261,68.7935384 413.663229,68.7020819 C414.314196,68.6106253 414.973088,68.5045647 415.639902,68.3839 C416.306717,68.2632354 416.905949,68.1240308 417.437598,67.9662864 C417.969248,67.808542 418.353044,67.6341738 418.588988,67.4431818 L418.588988,67.4431818 L418.588988,71.0385742 C418.588988,72.173547 418.299341,73.2169596 417.720047,74.1688121 C417.140753,75.1206647 416.32013,75.8842699 415.258177,76.459628 C414.196225,77.0349861 412.941364,77.3226651 411.493595,77.3226651 Z M445.427723,94.0909091 C448.18012,94.0909091 450.637484,93.6673399 452.799816,92.8202015 C454.962147,91.9730632 456.665746,90.6923606 457.910611,88.9780939 C459.155477,87.2638272 459.77791,85.1021692 459.77791,82.4931197 L459.77791,82.4931197 L459.77791,51.4545455 L452.66636,51.4545455 L452.66636,56.497603 L452.284479,56.497603 C451.918653,55.7659505 451.393011,54.9778498 450.707553,54.1333008 C450.022095,53.2887518 449.099347,52.5648674 447.939309,51.9616477 C446.779271,51.358428 445.30043,51.0568182 443.502785,51.0568182 C441.153502,51.0568182 439.025661,51.655377 437.119263,52.8524947 C435.212865,54.0496123 433.700206,55.8075876 432.581288,58.1264205 C431.462369,60.4452533 430.90291,63.2804066 430.90291,66.6318803 C430.90291,69.951453 431.461696,72.7169522 432.579268,74.928378 C433.69684,77.1398038 435.206857,78.7970008 437.10932,79.8999689 C439.011782,81.0029371 441.137655,81.5544212 443.486938,81.5544212 C445.231553,81.5544212 446.68652,81.2899429 447.85184,80.7609863 C449.01716,80.2320298 449.953166,79.5784727 450.659857,78.8003152 C451.366548,78.0221576 451.902806,77.2591738 452.268632,76.5113636 L452.268632,76.5113636 L452.634666,76.5113636 L452.634666,82.3023349 C452.634666,84.5507369 451.966505,86.1707505 450.630182,87.1623757 C449.29386,88.1540009 447.602173,88.6498136 445.55512,88.6498136 C444.11543,88.6498136 442.921627,88.4529696 441.97371,88.0592818 C441.025794,87.6655939 440.27208,87.1724225 439.712569,86.5797674 C439.153058,85.9871123 438.724879,85.3938358 438.428034,84.7999379 L438.428034,84.7999379 L431.952848,86.375 C432.393041,87.7962536 433.177205,89.0908869 434.305342,90.2589 C435.433479,91.4269132 436.922937,92.3575846 438.773715,93.0509144 C440.624493,93.7442442 442.842496,94.0909091 445.427723,94.0909091 Z M445.491422,75.9066939 C443.911284,75.9066939 442.583611,75.5202563 441.508401,74.747381 C440.433191,73.9745058 439.619144,72.8900775 439.066262,71.4940962 C438.51338,70.0981149 438.236938,68.4614258 438.236938,66.5840288 C438.236938,64.7385328 438.509392,63.0906058 439.054299,61.6402477 C439.599206,60.1898896 440.409265,59.0471487 441.484475,58.212025 C442.559685,57.3769013 443.895334,56.9593395 445.491422,56.9593395 C447.039865,56.9593395 448.348378,57.3610026 449.416959,58.1643288 C450.48554,58.9676551 451.296893,60.0905096 451.851019,61.5328924 C452.405144,62.9752752 452.682207,64.6589873 452.682207,66.5840288 C452.682207,68.5301995 452.401156,70.1993075 451.839056,71.591353 C451.276955,72.9833984 450.461666,74.0506333 449.393188,74.7930575 C448.324711,75.5354818 447.024122,75.9066939 445.491422,75.9066939 Z M479.823481,82.6046697 C482.193894,82.6046697 484.299155,82.2407079 486.139266,81.5127841 C487.979376,80.7848603 489.494727,79.761334 490.685319,78.4422053 C491.875912,77.1230765 492.683329,75.5779474 493.107572,73.8068182 L493.107572,73.8068182 L486.377902,73.0430575 C486.054334,73.9074929 485.58369,74.6333452 484.96597,75.2206143 C484.34825,75.8078835 483.613128,76.2493712 482.760603,76.5450772 C481.908079,76.8407833 480.960836,76.9886364 479.918873,76.9886364 C478.346608,76.9886364 476.977141,76.6525361 475.810475,75.9803356 C474.643808,75.3081351 473.737632,74.3389856 473.091947,73.0728871 C472.446261,71.8067886 472.123419,70.2855853 472.123419,68.5092773 L472.126,68.701 L493.393749,68.7000621 L493.393749,66.4886364 C493.393749,63.8079131 493.023883,61.4957608 492.284152,59.5521795 C491.544421,57.6085982 490.527575,56.0090924 489.233615,54.7536621 C487.939655,53.4982318 486.45346,52.5682336 484.77503,51.9636674 C483.0966,51.3591013 481.31879,51.0568182 479.4416,51.0568182 C476.524934,51.0568182 473.984088,51.7230114 471.819064,53.0553977 C469.65404,54.3877841 467.972969,56.2438447 466.775851,58.6235795 C465.578734,61.0033144 464.980175,63.7628581 464.980175,66.9022106 C464.980175,70.0945934 465.577439,72.8673946 466.771967,75.2206143 C467.966495,77.573834 469.672735,79.3928149 471.890686,80.6775568 C474.108637,81.9622988 476.752902,82.6046697 479.823481,82.6046697 Z M472.159165,63.5431613 C472.257759,62.4582657 472.558744,61.446172 473.062117,60.5068803 C473.677352,59.3588571 474.541114,58.4328465 475.653404,57.7288485 C476.765693,57.0248506 478.060223,56.6728516 479.536993,56.6728516 C480.921167,56.6728516 482.133562,56.9830581 483.174178,57.6034712 C484.214794,58.2238844 485.026147,59.0736639 485.608238,60.1528098 C486.190328,61.2319558 486.483963,62.4636156 486.489141,63.8477894 L486.489141,63.8477894 L472.137,63.848 L472.159165,63.5431613 Z M505.802937,82 L505.802937,64.0385742 C505.802937,62.7447177 506.101906,61.5999571 506.699843,60.6042924 C507.29778,59.6086278 508.115762,58.829072 509.153789,58.265625 C510.191816,57.702178 511.371119,57.4204545 512.691698,57.4204545 C513.293467,57.4204545 513.922477,57.4648881 514.578727,57.5537553 C515.234977,57.6426225 515.719604,57.7361506 516.032607,57.8343395 L516.032607,57.8343395 L516.032607,51.2239879 C515.698474,51.1550071 515.282155,51.101925 514.78365,51.0647417 C514.285144,51.0275583 513.837028,51.0089666 513.439301,51.0089666 C511.689301,51.0089666 510.134228,51.490227 508.774084,52.4527477 C507.41394,53.4152684 506.455458,54.779504 505.89864,56.5454545 L505.89864,56.5454545 L505.580458,56.5454545 L505.580458,51.4545455 L498.595994,51.4545455 L498.595994,82 L505.802937,82 Z" id="AlertzManager" fill="#3C3C3C" fill-rule="nonzero"></path>
        <path d="M504.113636,42.2727273 C505.204545,42.2727273 506.167614,41.9957386 507.002841,41.4417614 C507.838068,40.8877841 508.491477,40.1036932 508.963068,39.0894886 C509.434659,38.0752841 509.670455,36.875 509.670455,35.4886364 C509.670455,34.1136364 509.434659,32.9204545 508.963068,31.9090909 C508.491477,30.8977273 507.835227,30.1164773 506.994318,29.5653409 C506.153409,29.0142045 505.181818,28.7386364 504.079545,28.7386364 C503.227273,28.7386364 502.552557,28.8792614 502.055398,29.1605114 C501.558239,29.4417614 501.177557,29.7599432 500.913352,30.1150568 C500.649148,30.4701705 500.443182,30.7613636 500.295455,30.9886364 L500.295455,30.9886364 L500.125,30.9886364 L500.125,24.5454545 L498.113636,24.5454545 L498.113636,42 L500.056818,42 L500.056818,39.9886364 L500.295455,39.9886364 C500.443182,40.2272727 500.653409,40.5269886 500.926136,40.8877841 C501.198864,41.2485795 501.588068,41.5696023 502.09375,41.8508523 C502.599432,42.1321023 503.272727,42.2727273 504.113636,42.2727273 Z M503.840909,40.4659091 C503.034091,40.4659091 502.352273,40.2542614 501.795455,39.8309659 C501.238636,39.4076705 500.815341,38.8196023 500.525568,38.0667614 C500.235795,37.3139205 500.090909,36.4431818 500.090909,35.4545455 C500.090909,34.4772727 500.232955,33.6207386 500.517045,32.8849432 C500.801136,32.1491477 501.221591,31.5752841 501.778409,31.1633523 C502.335227,30.7514205 503.022727,30.5454545 503.840909,30.5454545 C504.693182,30.5454545 505.401989,30.7627841 505.96733,31.1974432 C506.53267,31.6321023 506.955966,32.2201705 507.237216,32.9616477 C507.518466,33.703125 507.659091,34.5340909 507.659091,35.4545455 C507.659091,36.3863636 507.515625,37.2315341 507.228693,37.9900568 C506.941761,38.7485795 506.515625,39.3508523 505.950284,39.796875 C505.384943,40.2428977 504.681818,40.4659091 503.840909,40.4659091 Z M517.852273,42.2727273 C518.738636,42.2727273 519.536932,42.1349432 520.247159,41.859375 C520.957386,41.5838068 521.553977,41.1974432 522.036932,40.7002841 C522.519886,40.203125 522.863636,39.625 523.068182,38.9659091 L523.068182,38.9659091 L521.125,38.4204545 C520.954545,38.875 520.713068,39.2542614 520.400568,39.5582386 C520.088068,39.8622159 519.71733,40.0894886 519.288352,40.2400568 C518.859375,40.390625 518.380682,40.4659091 517.852273,40.4659091 C517.039773,40.4659091 516.326705,40.2883523 515.713068,39.9332386 C515.099432,39.578125 514.620739,39.0582386 514.276989,38.3735795 C513.933239,37.6889205 513.761364,36.8522727 513.761364,35.8636364 L513.766,36.137 L523.272727,36.1363636 L523.272727,35.2840909 C523.272727,34.0625 523.110795,33.0340909 522.786932,32.1988636 C522.463068,31.3636364 522.028409,30.6917614 521.482955,30.1832386 C520.9375,29.6747159 520.332386,29.3068182 519.667614,29.0795455 C519.002841,28.8522727 518.329545,28.7386364 517.647727,28.7386364 C516.465909,28.7386364 515.433239,29.0269886 514.549716,29.6036932 C513.666193,30.1803977 512.978693,30.9815341 512.487216,32.0071023 C511.995739,33.0326705 511.75,34.2159091 511.75,35.5568182 C511.75,36.8977273 511.995739,38.0724432 512.487216,39.0809659 C512.978693,40.0894886 513.680398,40.8735795 514.59233,41.4332386 C515.504261,41.9928977 516.590909,42.2727273 517.852273,42.2727273 Z M513.790661,34.171875 C513.849254,33.6477273 513.995739,33.1491477 514.230114,32.6761364 C514.542614,32.0454545 514.990057,31.5326705 515.572443,31.1377841 C516.15483,30.7428977 516.846591,30.5454545 517.647727,30.5454545 C518.375,30.5454545 519.007102,30.7130682 519.544034,31.0482955 C520.080966,31.3835227 520.495739,31.8409091 520.788352,32.4204545 C521.080966,33 521.227273,33.6590909 521.227273,34.3977273 L521.227273,34.3977273 L513.771,34.398 L513.790661,34.171875 Z M530.397727,42.1704545 C530.772727,42.1704545 531.082386,42.1434659 531.326705,42.0894886 C531.571023,42.0355114 531.761364,41.9829545 531.897727,41.9318182 L531.897727,41.9318182 L531.488636,40.125 C531.403409,40.1420455 531.289773,40.1633523 531.147727,40.1889205 C531.005682,40.2144886 530.823864,40.2272727 530.602273,40.2272727 C530.306818,40.2272727 530.026989,40.1803977 529.762784,40.0866477 C529.49858,39.9928977 529.28267,39.8053977 529.115057,39.5241477 C528.947443,39.2428977 528.863636,38.8181818 528.863636,38.25 L528.863636,38.25 L528.863,30.614 L531.659091,30.6136364 L531.659091,28.9090909 L528.863,28.91 L528.863636,25.7727273 L526.852273,25.7727273 L526.852,28.91 L524.875,28.9090909 L524.875,30.6136364 L526.852,30.614 L526.852273,38.7954545 C526.852273,39.4722222 526.992565,40.0457351 527.273148,40.5159933 L527.384943,40.6875 C527.740057,41.1875 528.18892,41.5596591 528.731534,41.8039773 C529.274148,42.0482955 529.829545,42.1704545 530.397727,42.1704545 Z M538.170455,42.3068182 C538.931818,42.3068182 539.576705,42.1931818 540.105114,41.9659091 C540.633523,41.7386364 541.056818,41.4630682 541.375,41.1392045 C541.693182,40.8153409 541.920455,40.5113636 542.056818,40.2272727 L542.056818,40.2272727 L542.159091,40.2272727 L542.159091,42 L544.170455,42 L544.170455,33.375 C544.170455,32.3352273 544,31.5056818 543.659091,30.8863636 C543.318182,30.2670455 542.890625,29.8039773 542.37642,29.4971591 C541.862216,29.1903409 541.330966,28.9872159 540.78267,28.8877841 C540.234375,28.7883523 539.75,28.7386364 539.329545,28.7386364 C538.670455,28.7386364 538.00142,28.828125 537.322443,29.0071023 C536.643466,29.1860795 536.018466,29.4985795 535.447443,29.9446023 C534.87642,30.390625 534.420455,31.0113636 534.079545,31.8068182 L534.079545,31.8068182 L535.988636,32.4886364 C536.210227,32.0113636 536.59375,31.5625 537.139205,31.1420455 C537.684659,30.7215909 538.4375,30.5113636 539.397727,30.5113636 C540.323864,30.5113636 541.015625,30.7443182 541.473011,31.2102273 C541.930398,31.6761364 542.159091,32.3295455 542.159091,33.1704545 L542.159091,33.1704545 L542.159091,33.2386364 C542.159091,33.5625 542.044034,33.7897727 541.81392,33.9204545 C541.583807,34.0511364 541.22017,34.1434659 540.723011,34.1974432 C540.225852,34.2514205 539.579545,34.3295455 538.784091,34.4318182 C538.176136,34.5113636 537.572443,34.6178977 536.973011,34.7514205 C536.37358,34.8849432 535.826705,35.0852273 535.332386,35.3522727 C534.838068,35.6193182 534.443182,35.9872159 534.147727,36.4559659 C533.852273,36.9247159 533.704545,37.5340909 533.704545,38.2840909 C533.704545,39.1363636 533.903409,39.8622159 534.301136,40.4616477 C534.698864,41.0610795 535.235795,41.5184659 535.911932,41.8338068 C536.588068,42.1491477 537.340909,42.3068182 538.170455,42.3068182 Z M538.477273,40.5 C537.676136,40.5 537.015625,40.3224432 536.495739,39.9673295 C535.975852,39.6122159 535.715909,39.0852273 535.715909,38.3863636 C535.715909,37.875 535.853693,37.4701705 536.129261,37.171875 C536.40483,36.8735795 536.768466,36.6491477 537.22017,36.4985795 C537.671875,36.3480114 538.159091,36.2386364 538.681818,36.1704545 C538.897727,36.1420455 539.180398,36.1065341 539.52983,36.0639205 C539.879261,36.0213068 540.240057,35.9701705 540.612216,35.9105114 C540.984375,35.8508523 541.31392,35.7798295 541.600852,35.6974432 C541.887784,35.6150568 542.073864,35.5227273 542.159091,35.4204545 L542.159091,35.4204545 L542.159091,37.2613636 C542.159091,37.8068182 542.018466,38.3267045 541.737216,38.8210227 C541.455966,39.3153409 541.041193,39.71875 540.492898,40.03125 C539.944602,40.34375 539.272727,40.5 538.477273,40.5 Z" id="beta" fill="#676767" fill-rule="nonzero"></path>
        <g id="for-a-limited-period" transform="translate(44.613636, 142.727273)" fill-rule="nonzero">
            <style>
                path { fill: #000; }
                @media (prefers-color-scheme: dark) {
                    path { fill: #fff; }
                }
            </style>
            <path d="M4.125,18.2727273 L4.12436364,6.88672727 L7.05681818,6.88636364 L7.05681818,5.18181818 L4.12436364,5.18272727 L4.125,3.85227273 C4.125,3.27651515 4.24060045,2.82421437 4.47180135,2.49537037 L4.56392045,2.37784091 C4.85653409,2.04261364 5.33522727,1.875 6,1.875 C6.28977273,1.875 6.52414773,1.90056818 6.703125,1.95170455 C6.88210227,2.00284091 7.02272727,2.04545455 7.125,2.07954545 L7.125,2.07954545 L7.70454545,0.340909091 C7.55113636,0.272727273 7.31818182,0.198863636 7.00568182,0.119318182 C6.69318182,0.0397727273 6.28977273,0 5.79545455,0 C5.17045455,0 4.57670455,0.125 4.01420455,0.375 C3.45170455,0.625 2.99431818,1 2.64204545,1.5 C2.28977273,2 2.11363636,2.625 2.11363636,3.375 L2.11363636,3.375 L2.11336364,5.18272727 L2.84217094e-14,5.18181818 L2.84217094e-14,6.88636364 L2.11336364,6.88672727 L2.11363636,18.2727273 L4.125,18.2727273 Z M14.2840909,18.5454545 C15.4659091,18.5454545 16.5014205,18.2642045 17.390625,17.7017045 C18.2798295,17.1392045 18.9730114,16.3522727 19.4701705,15.3409091 C19.9673295,14.3295455 20.2159091,13.1477273 20.2159091,11.7954545 C20.2159091,10.4318182 19.9673295,9.24147727 19.4701705,8.22443182 C18.9730114,7.20738636 18.2798295,6.41761364 17.390625,5.85511364 C16.5014205,5.29261364 15.4659091,5.01136364 14.2840909,5.01136364 C13.1022727,5.01136364 12.0667614,5.29261364 11.1775568,5.85511364 C10.2883523,6.41761364 9.59517045,7.20738636 9.09801136,8.22443182 C8.60085227,9.24147727 8.35227273,10.4318182 8.35227273,11.7954545 C8.35227273,13.1477273 8.60085227,14.3295455 9.09801136,15.3409091 C9.59517045,16.3522727 10.2883523,17.1392045 11.1775568,17.7017045 C12.0667614,18.2642045 13.1022727,18.5454545 14.2840909,18.5454545 Z M14.2840909,16.7386364 C13.3863636,16.7386364 12.6477273,16.5085227 12.0681818,16.0482955 C11.4886364,15.5880682 11.0596591,14.9829545 10.78125,14.2329545 C10.5028409,13.4829545 10.3636364,12.6704545 10.3636364,11.7954545 C10.3636364,10.9204545 10.5028409,10.1051136 10.78125,9.34943182 C11.0596591,8.59375 11.4886364,7.98295455 12.0681818,7.51704545 C12.6477273,7.05113636 13.3863636,6.81818182 14.2840909,6.81818182 C15.1818182,6.81818182 15.9204545,7.05113636 16.5,7.51704545 C17.0795455,7.98295455 17.5085227,8.59375 17.7869318,9.34943182 C18.0653409,10.1051136 18.2045455,10.9204545 18.2045455,11.7954545 C18.2045455,12.6704545 18.0653409,13.4829545 17.7869318,14.2329545 C17.5085227,14.9829545 17.0795455,15.5880682 16.5,16.0482955 C15.9204545,16.5085227 15.1818182,16.7386364 14.2840909,16.7386364 Z M24.9204545,18.2727273 L24.9204545,9.98863636 C24.9204545,9.39772727 25.0639205,8.87073864 25.3508523,8.40767045 C25.6377841,7.94460227 26.0298295,7.58096591 26.5269886,7.31676136 C27.0241477,7.05255682 27.5909091,6.92045455 28.2272727,6.92045455 C28.4943182,6.92045455 28.7485795,6.93892045 28.9900568,6.97585227 C29.2315341,7.01278409 29.3863636,7.03977273 29.4545455,7.05681818 L29.4545455,7.05681818 L29.4545455,5.01136364 C29.3409091,5 29.1732955,4.99147727 28.9517045,4.98579545 C28.7301136,4.98011364 28.5454545,4.97727273 28.3977273,4.97727273 C27.6136364,4.97727273 26.9090909,5.17897727 26.2840909,5.58238636 C25.6590909,5.98579545 25.2272727,6.51136364 24.9886364,7.15909091 L24.9886364,7.15909091 L24.8522727,7.15909091 L24.8522727,5.18181818 L22.9090909,5.18181818 L22.9090909,18.2727273 L24.9204545,18.2727273 Z M41.6931818,18.5795455 C42.4545455,18.5795455 43.0994318,18.4659091 43.6278409,18.2386364 C44.15625,18.0113636 44.5795455,17.7357955 44.8977273,17.4119318 C45.2159091,17.0880682 45.4431818,16.7840909 45.5795455,16.5 L45.5795455,16.5 L45.6818182,16.5 L45.6818182,18.2727273 L47.6931818,18.2727273 L47.6931818,9.64772727 C47.6931818,8.60795455 47.5227273,7.77840909 47.1818182,7.15909091 C46.8409091,6.53977273 46.4133523,6.07670455 45.8991477,5.76988636 C45.3849432,5.46306818 44.8536932,5.25994318 44.3053977,5.16051136 C43.7571023,5.06107955 43.2727273,5.01136364 42.8522727,5.01136364 C42.1931818,5.01136364 41.5241477,5.10085227 40.8451705,5.27982955 C40.1661932,5.45880682 39.5411932,5.77130682 38.9701705,6.21732955 C38.3991477,6.66335227 37.9431818,7.28409091 37.6022727,8.07954545 L37.6022727,8.07954545 L39.5113636,8.76136364 C39.7329545,8.28409091 40.1164773,7.83522727 40.6619318,7.41477273 C41.2073864,6.99431818 41.9602273,6.78409091 42.9204545,6.78409091 C43.8465909,6.78409091 44.5383523,7.01704545 44.9957386,7.48295455 C45.453125,7.94886364 45.6818182,8.60227273 45.6818182,9.44318182 L45.6818182,9.44318182 L45.6818182,9.51136364 C45.6818182,9.83522727 45.5667614,10.0625 45.3366477,10.1931818 C45.1065341,10.3238636 44.7428977,10.4161932 44.2457386,10.4701705 C43.7485795,10.5241477 43.1022727,10.6022727 42.3068182,10.7045455 C41.6988636,10.7840909 41.0951705,10.890625 40.4957386,11.0241477 C39.8963068,11.1576705 39.3494318,11.3579545 38.8551136,11.625 C38.3607955,11.8920455 37.9659091,12.2599432 37.6704545,12.7286932 C37.375,13.1974432 37.2272727,13.8068182 37.2272727,14.5568182 C37.2272727,15.4090909 37.4261364,16.1349432 37.8238636,16.734375 C38.2215909,17.3338068 38.7585227,17.7911932 39.4346591,18.1065341 C40.1107955,18.421875 40.8636364,18.5795455 41.6931818,18.5795455 Z M42,16.7727273 C41.1988636,16.7727273 40.5383523,16.5951705 40.0184659,16.2400568 C39.4985795,15.8849432 39.2386364,15.3579545 39.2386364,14.6590909 C39.2386364,14.1477273 39.3764205,13.7428977 39.6519886,13.4446023 C39.9275568,13.1463068 40.2911932,12.921875 40.7428977,12.7713068 C41.1946023,12.6207386 41.6818182,12.5113636 42.2045455,12.4431818 C42.4204545,12.4147727 42.703125,12.3792614 43.0525568,12.3366477 C43.4019886,12.2940341 43.7627841,12.2428977 44.1349432,12.1832386 C44.5071023,12.1235795 44.8366477,12.0525568 45.1235795,11.9701705 C45.4105114,11.8877841 45.5965909,11.7954545 45.6818182,11.6931818 L45.6818182,11.6931818 L45.6818182,13.5340909 C45.6818182,14.0795455 45.5411932,14.5994318 45.2599432,15.09375 C44.9786932,15.5880682 44.5639205,15.9914773 44.015625,16.3039773 C43.4673295,16.6164773 42.7954545,16.7727273 42,16.7727273 Z M59.3863636,18.2727273 L59.3863636,0.818181818 L57.375,0.818181818 L57.375,18.2727273 L59.3863636,18.2727273 Z M63.7159091,3 C64.1079545,3 64.4446023,2.86647727 64.7258523,2.59943182 C65.0071023,2.33238636 65.1477273,2.01136364 65.1477273,1.63636364 C65.1477273,1.26136364 65.0071023,0.940340909 64.7258523,0.673295455 C64.4446023,0.40625 64.1079545,0.272727273 63.7159091,0.272727273 C63.3238636,0.272727273 62.9872159,0.40625 62.7059659,0.673295455 C62.4247159,0.940340909 62.2840909,1.26136364 62.2840909,1.63636364 C62.2840909,2.01136364 62.4247159,2.33238636 62.7059659,2.59943182 C62.9872159,2.86647727 63.3238636,3 63.7159091,3 Z M64.7045455,18.2727273 L64.7045455,5.18181818 L62.6931818,5.18181818 L62.6931818,18.2727273 L64.7045455,18.2727273 Z M70.0227273,18.2727273 L70.0227273,10.0909091 C70.0227273,9.44886364 70.1605114,8.88210227 70.4360795,8.390625 C70.7116477,7.89914773 71.0752841,7.51420455 71.5269886,7.23579545 C71.9786932,6.95738636 72.4659091,6.81818182 72.9886364,6.81818182 C73.75,6.81818182 74.3721591,7.046875 74.8551136,7.50426136 C75.3380682,7.96164773 75.5795455,8.5625 75.5795455,9.30681818 L75.5795455,9.30681818 L75.5795455,18.2727273 L77.625,18.2727273 L77.625,9.75 C77.625,8.90340909 77.8778409,8.203125 78.3835227,7.64914773 C78.8892045,7.09517045 79.6022727,6.81818182 80.5227273,6.81818182 C81.2386364,6.81818182 81.8607955,7.02556818 82.3892045,7.44034091 C82.9176136,7.85511364 83.1818182,8.54545455 83.1818182,9.51136364 L83.1818182,9.51136364 L83.1818182,18.2727273 L85.1931818,18.2727273 L85.1931818,9.51136364 C85.1931818,7.97159091 84.8210227,6.83664773 84.0767045,6.10653409 C83.3323864,5.37642045 82.375,5.01136364 81.2045455,5.01136364 C80.2670455,5.01136364 79.4630682,5.21164773 78.7926136,5.61221591 C78.1221591,6.01278409 77.6193182,6.55113636 77.2840909,7.22727273 L77.2840909,7.22727273 L77.1477273,7.22727273 C76.8238636,6.52840909 76.3735795,5.984375 75.796875,5.59517045 C75.2201705,5.20596591 74.5,5.01136364 73.6363636,5.01136364 C72.7840909,5.01136364 72.0539773,5.20596591 71.4460227,5.59517045 C70.8380682,5.984375 70.3977273,6.52840909 70.125,7.22727273 L70.125,7.22727273 L69.9545455,7.22727273 L69.9545455,5.18181818 L68.0113636,5.18181818 L68.0113636,18.2727273 L70.0227273,18.2727273 Z M89.5227273,3 C89.9147727,3 90.2514205,2.86647727 90.5326705,2.59943182 C90.8139205,2.33238636 90.9545455,2.01136364 90.9545455,1.63636364 C90.9545455,1.26136364 90.8139205,0.940340909 90.5326705,0.673295455 C90.2514205,0.40625 89.9147727,0.272727273 89.5227273,0.272727273 C89.1306818,0.272727273 88.7940341,0.40625 88.5127841,0.673295455 C88.2315341,0.940340909 88.0909091,1.26136364 88.0909091,1.63636364 C88.0909091,2.01136364 88.2315341,2.33238636 88.5127841,2.59943182 C88.7940341,2.86647727 89.1306818,3 89.5227273,3 Z M90.5113636,18.2727273 L90.5113636,5.18181818 L88.5,5.18181818 L88.5,18.2727273 L90.5113636,18.2727273 Z M98.25,18.4431818 C98.625,18.4431818 98.9346591,18.4161932 99.1789773,18.3622159 C99.4232955,18.3082386 99.6136364,18.2556818 99.75,18.2045455 L99.75,18.2045455 L99.3409091,16.3977273 C99.2556818,16.4147727 99.1420455,16.4360795 99,16.4616477 C98.8579545,16.4872159 98.6761364,16.5 98.4545455,16.5 C98.1590909,16.5 97.8792614,16.453125 97.6150568,16.359375 C97.3508523,16.265625 97.1349432,16.078125 96.9673295,15.796875 C96.7997159,15.515625 96.7159091,15.0909091 96.7159091,14.5227273 L96.7159091,14.5227273 L96.7153636,6.88672727 L99.5113636,6.88636364 L99.5113636,5.18181818 L96.7153636,5.18272727 L96.7159091,2.04545455 L94.7045455,2.04545455 L94.7043636,5.18272727 L92.7272727,5.18181818 L92.7272727,6.88636364 L94.7043636,6.88672727 L94.7045455,15.0681818 C94.7045455,15.7449495 94.8448373,16.3184624 95.1254209,16.7887205 L95.2372159,16.9602273 C95.5923295,17.4602273 96.0411932,17.8323864 96.5838068,18.0767045 C97.1264205,18.3210227 97.6818182,18.4431818 98.25,18.4431818 Z M107.522727,18.5454545 C108.409091,18.5454545 109.207386,18.4076705 109.917614,18.1321023 C110.627841,17.8565341 111.224432,17.4701705 111.707386,16.9730114 C112.190341,16.4758523 112.534091,15.8977273 112.738636,15.2386364 L112.738636,15.2386364 L110.795455,14.6931818 C110.625,15.1477273 110.383523,15.5269886 110.071023,15.8309659 C109.758523,16.1349432 109.387784,16.3622159 108.958807,16.5127841 C108.52983,16.6633523 108.051136,16.7386364 107.522727,16.7386364 C106.710227,16.7386364 105.997159,16.5610795 105.383523,16.2059659 C104.769886,15.8508523 104.291193,15.3309659 103.947443,14.6463068 C103.603693,13.9616477 103.431818,13.125 103.431818,12.1363636 L103.436364,12.4097273 L112.943182,12.4090909 L112.943182,11.5568182 C112.943182,10.3352273 112.78125,9.30681818 112.457386,8.47159091 C112.133523,7.63636364 111.698864,6.96448864 111.153409,6.45596591 C110.607955,5.94744318 110.002841,5.57954545 109.338068,5.35227273 C108.673295,5.125 108,5.01136364 107.318182,5.01136364 C106.136364,5.01136364 105.103693,5.29971591 104.22017,5.87642045 C103.336648,6.453125 102.649148,7.25426136 102.15767,8.27982955 C101.666193,9.30539773 101.420455,10.4886364 101.420455,11.8295455 C101.420455,13.1704545 101.666193,14.3451705 102.15767,15.3536932 C102.649148,16.3622159 103.350852,17.1463068 104.262784,17.7059659 C105.174716,18.265625 106.261364,18.5454545 107.522727,18.5454545 Z M103.461115,10.4446023 C103.519709,9.92045455 103.666193,9.421875 103.900568,8.94886364 C104.213068,8.31818182 104.660511,7.80539773 105.242898,7.41051136 C105.825284,7.015625 106.517045,6.81818182 107.318182,6.81818182 C108.045455,6.81818182 108.677557,6.98579545 109.214489,7.32102273 C109.75142,7.65625 110.166193,8.11363636 110.458807,8.69318182 C110.75142,9.27272727 110.897727,9.93181818 110.897727,10.6704545 L110.897727,10.6704545 L103.441364,10.6707273 L103.461115,10.4446023 Z M120.579545,18.5454545 C121.420455,18.5454545 122.09375,18.4048295 122.599432,18.1235795 C123.105114,17.8423295 123.494318,17.5213068 123.767045,17.1605114 C124.039773,16.7997159 124.25,16.5 124.397727,16.2613636 L124.397727,16.2613636 L124.636364,16.2613636 L124.636364,18.2727273 L126.579545,18.2727273 L126.579545,0.818181818 L124.568182,0.818181818 L124.568182,7.26136364 L124.397727,7.26136364 C124.25,7.03409091 124.044034,6.74289773 123.77983,6.38778409 C123.515625,6.03267045 123.134943,5.71448864 122.637784,5.43323864 C122.140625,5.15198864 121.465909,5.01136364 120.613636,5.01136364 C119.511364,5.01136364 118.539773,5.28693182 117.698864,5.83806818 C116.857955,6.38920455 116.201705,7.17045455 115.730114,8.18181818 C115.258523,9.19318182 115.022727,10.3863636 115.022727,11.7613636 C115.022727,13.1477273 115.258523,14.3480114 115.730114,15.3622159 C116.201705,16.3764205 116.855114,17.1605114 117.690341,17.7144886 C118.525568,18.2684659 119.488636,18.5454545 120.579545,18.5454545 Z M120.852273,16.7386364 C120.011364,16.7386364 119.308239,16.515625 118.742898,16.0696023 C118.177557,15.6235795 117.75142,15.0213068 117.464489,14.2627841 C117.177557,13.5042614 117.034091,12.6590909 117.034091,11.7272727 C117.034091,10.8068182 117.174716,9.97585227 117.455966,9.234375 C117.737216,8.49289773 118.160511,7.90482955 118.725852,7.47017045 C119.291193,7.03551136 120,6.81818182 120.852273,6.81818182 C121.670455,6.81818182 122.357955,7.02414773 122.914773,7.43607955 C123.471591,7.84801136 123.892045,8.421875 124.176136,9.15767045 C124.460227,9.89346591 124.602273,10.75 124.602273,11.7272727 C124.602273,12.7159091 124.457386,13.5866477 124.167614,14.3394886 C123.877841,15.0923295 123.454545,15.6803977 122.897727,16.1036932 C122.340909,16.5269886 121.659091,16.7386364 120.852273,16.7386364 Z M138.545455,23.1818182 L138.545455,16.2613636 L138.715909,16.2613636 C138.863636,16.5 139.073864,16.7997159 139.346591,17.1605114 C139.619318,17.5213068 140.008523,17.8423295 140.514205,18.1235795 C141.019886,18.4048295 141.693182,18.5454545 142.534091,18.5454545 C143.625,18.5454545 144.588068,18.2684659 145.423295,17.7144886 C146.258523,17.1605114 146.911932,16.3764205 147.383523,15.3622159 C147.855114,14.3480114 148.090909,13.1477273 148.090909,11.7613636 C148.090909,10.3863636 147.855114,9.19318182 147.383523,8.18181818 C146.911932,7.17045455 146.255682,6.38920455 145.414773,5.83806818 C144.573864,5.28693182 143.602273,5.01136364 142.5,5.01136364 C141.647727,5.01136364 140.973011,5.15198864 140.475852,5.43323864 C139.978693,5.71448864 139.598011,6.03267045 139.333807,6.38778409 C139.069602,6.74289773 138.863636,7.03409091 138.715909,7.26136364 L138.715909,7.26136364 L138.477273,7.26136364 L138.477273,5.18181818 L136.534091,5.18181818 L136.534091,23.1818182 L138.545455,23.1818182 Z M142.261364,16.7386364 C141.454545,16.7386364 140.772727,16.5269886 140.215909,16.1036932 C139.659091,15.6803977 139.235795,15.0923295 138.946023,14.3394886 C138.65625,13.5866477 138.511364,12.7159091 138.511364,11.7272727 C138.511364,10.75 138.653409,9.89346591 138.9375,9.15767045 C139.221591,8.421875 139.642045,7.84801136 140.198864,7.43607955 C140.755682,7.02414773 141.443182,6.81818182 142.261364,6.81818182 C143.113636,6.81818182 143.822443,7.03551136 144.387784,7.47017045 C144.953125,7.90482955 145.37642,8.49289773 145.65767,9.234375 C145.93892,9.97585227 146.079545,10.8068182 146.079545,11.7272727 C146.079545,12.6590909 145.93608,13.5042614 145.649148,14.2627841 C145.362216,15.0213068 144.93608,15.6235795 144.370739,16.0696023 C143.805398,16.515625 143.102273,16.7386364 142.261364,16.7386364 Z M156.272727,18.5454545 C157.159091,18.5454545 157.957386,18.4076705 158.667614,18.1321023 C159.377841,17.8565341 159.974432,17.4701705 160.457386,16.9730114 C160.940341,16.4758523 161.284091,15.8977273 161.488636,15.2386364 L161.488636,15.2386364 L159.545455,14.6931818 C159.375,15.1477273 159.133523,15.5269886 158.821023,15.8309659 C158.508523,16.1349432 158.137784,16.3622159 157.708807,16.5127841 C157.27983,16.6633523 156.801136,16.7386364 156.272727,16.7386364 C155.460227,16.7386364 154.747159,16.5610795 154.133523,16.2059659 C153.519886,15.8508523 153.041193,15.3309659 152.697443,14.6463068 C152.353693,13.9616477 152.181818,13.125 152.181818,12.1363636 L152.186364,12.4097273 L161.693182,12.4090909 L161.693182,11.5568182 C161.693182,10.3352273 161.53125,9.30681818 161.207386,8.47159091 C160.883523,7.63636364 160.448864,6.96448864 159.903409,6.45596591 C159.357955,5.94744318 158.752841,5.57954545 158.088068,5.35227273 C157.423295,5.125 156.75,5.01136364 156.068182,5.01136364 C154.886364,5.01136364 153.853693,5.29971591 152.97017,5.87642045 C152.086648,6.453125 151.399148,7.25426136 150.90767,8.27982955 C150.416193,9.30539773 150.170455,10.4886364 150.170455,11.8295455 C150.170455,13.1704545 150.416193,14.3451705 150.90767,15.3536932 C151.399148,16.3622159 152.100852,17.1463068 153.012784,17.7059659 C153.924716,18.265625 155.011364,18.5454545 156.272727,18.5454545 Z M152.211115,10.4446023 C152.269709,9.92045455 152.416193,9.421875 152.650568,8.94886364 C152.963068,8.31818182 153.410511,7.80539773 153.992898,7.41051136 C154.575284,7.015625 155.267045,6.81818182 156.068182,6.81818182 C156.795455,6.81818182 157.427557,6.98579545 157.964489,7.32102273 C158.50142,7.65625 158.916193,8.11363636 159.208807,8.69318182 C159.50142,9.27272727 159.647727,9.93181818 159.647727,10.6704545 L159.647727,10.6704545 L152.191364,10.6707273 L152.211115,10.4446023 Z M166.397727,18.2727273 L166.397727,9.98863636 C166.397727,9.39772727 166.541193,8.87073864 166.828125,8.40767045 C167.115057,7.94460227 167.507102,7.58096591 168.004261,7.31676136 C168.50142,7.05255682 169.068182,6.92045455 169.704545,6.92045455 C169.971591,6.92045455 170.225852,6.93892045 170.46733,6.97585227 C170.708807,7.01278409 170.863636,7.03977273 170.931818,7.05681818 L170.931818,7.05681818 L170.931818,5.01136364 C170.818182,5 170.650568,4.99147727 170.428977,4.98579545 C170.207386,4.98011364 170.022727,4.97727273 169.875,4.97727273 C169.090909,4.97727273 168.386364,5.17897727 167.761364,5.58238636 C167.136364,5.98579545 166.704545,6.51136364 166.465909,7.15909091 L166.465909,7.15909091 L166.329545,7.15909091 L166.329545,5.18181818 L164.386364,5.18181818 L164.386364,18.2727273 L166.397727,18.2727273 Z M173.965909,3 C174.357955,3 174.694602,2.86647727 174.975852,2.59943182 C175.257102,2.33238636 175.397727,2.01136364 175.397727,1.63636364 C175.397727,1.26136364 175.257102,0.940340909 174.975852,0.673295455 C174.694602,0.40625 174.357955,0.272727273 173.965909,0.272727273 C173.573864,0.272727273 173.237216,0.40625 172.955966,0.673295455 C172.674716,0.940340909 172.534091,1.26136364 172.534091,1.63636364 C172.534091,2.01136364 172.674716,2.33238636 172.955966,2.59943182 C173.237216,2.86647727 173.573864,3 173.965909,3 Z M174.954545,18.2727273 L174.954545,5.18181818 L172.943182,5.18181818 L172.943182,18.2727273 L174.954545,18.2727273 Z M183.579545,18.5454545 C184.761364,18.5454545 185.796875,18.2642045 186.68608,17.7017045 C187.575284,17.1392045 188.268466,16.3522727 188.765625,15.3409091 C189.262784,14.3295455 189.511364,13.1477273 189.511364,11.7954545 C189.511364,10.4318182 189.262784,9.24147727 188.765625,8.22443182 C188.268466,7.20738636 187.575284,6.41761364 186.68608,5.85511364 C185.796875,5.29261364 184.761364,5.01136364 183.579545,5.01136364 C182.397727,5.01136364 181.362216,5.29261364 180.473011,5.85511364 C179.583807,6.41761364 178.890625,7.20738636 178.393466,8.22443182 C177.896307,9.24147727 177.647727,10.4318182 177.647727,11.7954545 C177.647727,13.1477273 177.896307,14.3295455 178.393466,15.3409091 C178.890625,16.3522727 179.583807,17.1392045 180.473011,17.7017045 C181.362216,18.2642045 182.397727,18.5454545 183.579545,18.5454545 Z M183.579545,16.7386364 C182.681818,16.7386364 181.943182,16.5085227 181.363636,16.0482955 C180.784091,15.5880682 180.355114,14.9829545 180.076705,14.2329545 C179.798295,13.4829545 179.659091,12.6704545 179.659091,11.7954545 C179.659091,10.9204545 179.798295,10.1051136 180.076705,9.34943182 C180.355114,8.59375 180.784091,7.98295455 181.363636,7.51704545 C181.943182,7.05113636 182.681818,6.81818182 183.579545,6.81818182 C184.477273,6.81818182 185.215909,7.05113636 185.795455,7.51704545 C186.375,7.98295455 186.803977,8.59375 187.082386,9.34943182 C187.360795,10.1051136 187.5,10.9204545 187.5,11.7954545 C187.5,12.6704545 187.360795,13.4829545 187.082386,14.2329545 C186.803977,14.9829545 186.375,15.5880682 185.795455,16.0482955 C185.215909,16.5085227 184.477273,16.7386364 183.579545,16.7386364 Z M197.147727,18.5454545 C197.988636,18.5454545 198.661932,18.4048295 199.167614,18.1235795 C199.673295,17.8423295 200.0625,17.5213068 200.335227,17.1605114 C200.607955,16.7997159 200.818182,16.5 200.965909,16.2613636 L200.965909,16.2613636 L201.204545,16.2613636 L201.204545,18.2727273 L203.147727,18.2727273 L203.147727,0.818181818 L201.136364,0.818181818 L201.136364,7.26136364 L200.965909,7.26136364 C200.818182,7.03409091 200.612216,6.74289773 200.348011,6.38778409 C200.083807,6.03267045 199.703125,5.71448864 199.205966,5.43323864 C198.708807,5.15198864 198.034091,5.01136364 197.181818,5.01136364 C196.079545,5.01136364 195.107955,5.28693182 194.267045,5.83806818 C193.426136,6.38920455 192.769886,7.17045455 192.298295,8.18181818 C191.826705,9.19318182 191.590909,10.3863636 191.590909,11.7613636 C191.590909,13.1477273 191.826705,14.3480114 192.298295,15.3622159 C192.769886,16.3764205 193.423295,17.1605114 194.258523,17.7144886 C195.09375,18.2684659 196.056818,18.5454545 197.147727,18.5454545 Z M197.420455,16.7386364 C196.579545,16.7386364 195.87642,16.515625 195.31108,16.0696023 C194.745739,15.6235795 194.319602,15.0213068 194.03267,14.2627841 C193.745739,13.5042614 193.602273,12.6590909 193.602273,11.7272727 C193.602273,10.8068182 193.742898,9.97585227 194.024148,9.234375 C194.305398,8.49289773 194.728693,7.90482955 195.294034,7.47017045 C195.859375,7.03551136 196.568182,6.81818182 197.420455,6.81818182 C198.238636,6.81818182 198.926136,7.02414773 199.482955,7.43607955 C200.039773,7.84801136 200.460227,8.421875 200.744318,9.15767045 C201.028409,9.89346591 201.170455,10.75 201.170455,11.7272727 C201.170455,12.7159091 201.025568,13.5866477 200.735795,14.3394886 C200.446023,15.0923295 200.022727,15.6803977 199.465909,16.1036932 C198.909091,16.5269886 198.227273,16.7386364 197.420455,16.7386364 Z M218.420455,18.5454545 C219.386364,18.5454545 220.234375,18.3650568 220.964489,18.0042614 C221.694602,17.6434659 222.28267,17.1548295 222.728693,16.5383523 C223.174716,15.921875 223.454545,15.2272727 223.568182,14.4545455 L223.568182,14.4545455 L221.556818,14.4545455 C221.431818,14.9318182 221.221591,15.3409091 220.926136,15.6818182 C220.630682,16.0227273 220.269886,16.2840909 219.84375,16.4659091 C219.417614,16.6477273 218.943182,16.7386364 218.420455,16.7386364 C217.625,16.7386364 216.933239,16.53125 216.34517,16.1164773 C215.757102,15.7017045 215.302557,15.1193182 214.981534,14.3693182 C214.660511,13.6193182 214.5,12.7386364 214.5,11.7272727 C214.5,10.7386364 214.663352,9.87642045 214.990057,9.140625 C215.316761,8.40482955 215.774148,7.83380682 216.362216,7.42755682 C216.950284,7.02130682 217.636364,6.81818182 218.420455,6.81818182 C219.306818,6.81818182 220.012784,7.04971591 220.538352,7.51278409 C221.06392,7.97585227 221.403409,8.50568182 221.556818,9.10227273 L221.556818,9.10227273 L223.568182,9.10227273 C223.454545,8.28409091 223.161932,7.56818182 222.690341,6.95454545 C222.21875,6.34090909 221.613636,5.86363636 220.875,5.52272727 C220.136364,5.18181818 219.306818,5.01136364 218.386364,5.01136364 C217.204545,5.01136364 216.171875,5.29971591 215.288352,5.87642045 C214.40483,6.453125 213.71733,7.25142045 213.225852,8.27130682 C212.734375,9.29119318 212.488636,10.4659091 212.488636,11.7954545 C212.488636,13.1022727 212.727273,14.2642045 213.204545,15.28125 C213.681818,16.2982955 214.363636,17.0965909 215.25,17.6761364 C216.136364,18.2556818 217.193182,18.5454545 218.420455,18.5454545 Z M228.136364,18.2727273 L228.136364,9.98863636 C228.136364,9.39772727 228.27983,8.87073864 228.566761,8.40767045 C228.853693,7.94460227 229.245739,7.58096591 229.742898,7.31676136 C230.240057,7.05255682 230.806818,6.92045455 231.443182,6.92045455 C231.710227,6.92045455 231.964489,6.93892045 232.205966,6.97585227 C232.447443,7.01278409 232.602273,7.03977273 232.670455,7.05681818 L232.670455,7.05681818 L232.670455,5.01136364 C232.556818,5 232.389205,4.99147727 232.167614,4.98579545 C231.946023,4.98011364 231.761364,4.97727273 231.613636,4.97727273 C230.829545,4.97727273 230.125,5.17897727 229.5,5.58238636 C228.875,5.98579545 228.443182,6.51136364 228.204545,7.15909091 L228.204545,7.15909091 L228.068182,7.15909091 L228.068182,5.18181818 L226.125,5.18181818 L226.125,18.2727273 L228.136364,18.2727273 Z M239.761364,18.5454545 C240.647727,18.5454545 241.446023,18.4076705 242.15625,18.1321023 C242.866477,17.8565341 243.463068,17.4701705 243.946023,16.9730114 C244.428977,16.4758523 244.772727,15.8977273 244.977273,15.2386364 L244.977273,15.2386364 L243.034091,14.6931818 C242.863636,15.1477273 242.622159,15.5269886 242.309659,15.8309659 C241.997159,16.1349432 241.62642,16.3622159 241.197443,16.5127841 C240.768466,16.6633523 240.289773,16.7386364 239.761364,16.7386364 C238.948864,16.7386364 238.235795,16.5610795 237.622159,16.2059659 C237.008523,15.8508523 236.52983,15.3309659 236.18608,14.6463068 C235.84233,13.9616477 235.670455,13.125 235.670455,12.1363636 L235.675364,12.4097273 L245.181818,12.4090909 L245.181818,11.5568182 C245.181818,10.3352273 245.019886,9.30681818 244.696023,8.47159091 C244.372159,7.63636364 243.9375,6.96448864 243.392045,6.45596591 C242.846591,5.94744318 242.241477,5.57954545 241.576705,5.35227273 C240.911932,5.125 240.238636,5.01136364 239.556818,5.01136364 C238.375,5.01136364 237.34233,5.29971591 236.458807,5.87642045 C235.575284,6.453125 234.887784,7.25426136 234.396307,8.27982955 C233.90483,9.30539773 233.659091,10.4886364 233.659091,11.8295455 C233.659091,13.1704545 233.90483,14.3451705 234.396307,15.3536932 C234.887784,16.3622159 235.589489,17.1463068 236.50142,17.7059659 C237.413352,18.265625 238.5,18.5454545 239.761364,18.5454545 Z M235.699751,10.4446023 C235.758345,9.92045455 235.90483,9.421875 236.139205,8.94886364 C236.451705,8.31818182 236.899148,7.80539773 237.481534,7.41051136 C238.06392,7.015625 238.755682,6.81818182 239.556818,6.81818182 C240.284091,6.81818182 240.916193,6.98579545 241.453125,7.32102273 C241.990057,7.65625 242.40483,8.11363636 242.697443,8.69318182 C242.990057,9.27272727 243.136364,9.93181818 243.136364,10.6704545 L243.136364,10.6704545 L235.680364,10.6707273 L235.699751,10.4446023 Z M251.727273,18.5795455 C252.488636,18.5795455 253.133523,18.4659091 253.661932,18.2386364 C254.190341,18.0113636 254.613636,17.7357955 254.931818,17.4119318 C255.25,17.0880682 255.477273,16.7840909 255.613636,16.5 L255.613636,16.5 L255.715909,16.5 L255.715909,18.2727273 L257.727273,18.2727273 L257.727273,9.64772727 C257.727273,8.60795455 257.556818,7.77840909 257.215909,7.15909091 C256.875,6.53977273 256.447443,6.07670455 255.933239,5.76988636 C255.419034,5.46306818 254.887784,5.25994318 254.339489,5.16051136 C253.791193,5.06107955 253.306818,5.01136364 252.886364,5.01136364 C252.227273,5.01136364 251.558239,5.10085227 250.879261,5.27982955 C250.200284,5.45880682 249.575284,5.77130682 249.004261,6.21732955 C248.433239,6.66335227 247.977273,7.28409091 247.636364,8.07954545 L247.636364,8.07954545 L249.545455,8.76136364 C249.767045,8.28409091 250.150568,7.83522727 250.696023,7.41477273 C251.241477,6.99431818 251.994318,6.78409091 252.954545,6.78409091 C253.880682,6.78409091 254.572443,7.01704545 255.02983,7.48295455 C255.487216,7.94886364 255.715909,8.60227273 255.715909,9.44318182 L255.715909,9.44318182 L255.715909,9.51136364 C255.715909,9.83522727 255.600852,10.0625 255.370739,10.1931818 C255.140625,10.3238636 254.776989,10.4161932 254.27983,10.4701705 C253.78267,10.5241477 253.136364,10.6022727 252.340909,10.7045455 C251.732955,10.7840909 251.129261,10.890625 250.52983,11.0241477 C249.930398,11.1576705 249.383523,11.3579545 248.889205,11.625 C248.394886,11.8920455 248,12.2599432 247.704545,12.7286932 C247.409091,13.1974432 247.261364,13.8068182 247.261364,14.5568182 C247.261364,15.4090909 247.460227,16.1349432 247.857955,16.734375 C248.255682,17.3338068 248.792614,17.7911932 249.46875,18.1065341 C250.144886,18.421875 250.897727,18.5795455 251.727273,18.5795455 Z M252.034091,16.7727273 C251.232955,16.7727273 250.572443,16.5951705 250.052557,16.2400568 C249.53267,15.8849432 249.272727,15.3579545 249.272727,14.6590909 C249.272727,14.1477273 249.410511,13.7428977 249.68608,13.4446023 C249.961648,13.1463068 250.325284,12.921875 250.776989,12.7713068 C251.228693,12.6207386 251.715909,12.5113636 252.238636,12.4431818 C252.454545,12.4147727 252.737216,12.3792614 253.086648,12.3366477 C253.43608,12.2940341 253.796875,12.2428977 254.169034,12.1832386 C254.541193,12.1235795 254.870739,12.0525568 255.15767,11.9701705 C255.444602,11.8877841 255.630682,11.7954545 255.715909,11.6931818 L255.715909,11.6931818 L255.715909,13.5340909 C255.715909,14.0795455 255.575284,14.5994318 255.294034,15.09375 C255.012784,15.5880682 254.598011,15.9914773 254.049716,16.3039773 C253.50142,16.6164773 252.829545,16.7727273 252.034091,16.7727273 Z M265.465909,18.4431818 C265.840909,18.4431818 266.150568,18.4161932 266.394886,18.3622159 C266.639205,18.3082386 266.829545,18.2556818 266.965909,18.2045455 L266.965909,18.2045455 L266.556818,16.3977273 C266.471591,16.4147727 266.357955,16.4360795 266.215909,16.4616477 C266.073864,16.4872159 265.892045,16.5 265.670455,16.5 C265.375,16.5 265.09517,16.453125 264.830966,16.359375 C264.566761,16.265625 264.350852,16.078125 264.183239,15.796875 C264.015625,15.515625 263.931818,15.0909091 263.931818,14.5227273 L263.931818,14.5227273 L263.931364,6.88672727 L266.727273,6.88636364 L266.727273,5.18181818 L263.931364,5.18272727 L263.931818,2.04545455 L261.920455,2.04545455 L261.920364,5.18272727 L259.943182,5.18181818 L259.943182,6.88636364 L261.920364,6.88672727 L261.920455,15.0681818 C261.920455,15.7449495 262.060746,16.3184624 262.34133,16.7887205 L262.453125,16.9602273 C262.808239,17.4602273 263.257102,17.8323864 263.799716,18.0767045 C264.34233,18.3210227 264.897727,18.4431818 265.465909,18.4431818 Z M274.738636,18.5454545 C275.625,18.5454545 276.423295,18.4076705 277.133523,18.1321023 C277.84375,17.8565341 278.440341,17.4701705 278.923295,16.9730114 C279.40625,16.4758523 279.75,15.8977273 279.954545,15.2386364 L279.954545,15.2386364 L278.011364,14.6931818 C277.840909,15.1477273 277.599432,15.5269886 277.286932,15.8309659 C276.974432,16.1349432 276.603693,16.3622159 276.174716,16.5127841 C275.745739,16.6633523 275.267045,16.7386364 274.738636,16.7386364 C273.926136,16.7386364 273.213068,16.5610795 272.599432,16.2059659 C271.985795,15.8508523 271.507102,15.3309659 271.163352,14.6463068 C270.819602,13.9616477 270.647727,13.125 270.647727,12.1363636 L270.652364,12.4097273 L280.159091,12.4090909 L280.159091,11.5568182 C280.159091,10.3352273 279.997159,9.30681818 279.673295,8.47159091 C279.349432,7.63636364 278.914773,6.96448864 278.369318,6.45596591 C277.823864,5.94744318 277.21875,5.57954545 276.553977,5.35227273 C275.889205,5.125 275.215909,5.01136364 274.534091,5.01136364 C273.352273,5.01136364 272.319602,5.29971591 271.43608,5.87642045 C270.552557,6.453125 269.865057,7.25426136 269.37358,8.27982955 C268.882102,9.30539773 268.636364,10.4886364 268.636364,11.8295455 C268.636364,13.1704545 268.882102,14.3451705 269.37358,15.3536932 C269.865057,16.3622159 270.566761,17.1463068 271.478693,17.7059659 C272.390625,18.265625 273.477273,18.5454545 274.738636,18.5454545 Z M270.677024,10.4446023 C270.735618,9.92045455 270.882102,9.421875 271.116477,8.94886364 C271.428977,8.31818182 271.87642,7.80539773 272.458807,7.41051136 C273.041193,7.015625 273.732955,6.81818182 274.534091,6.81818182 C275.261364,6.81818182 275.893466,6.98579545 276.430398,7.32102273 C276.96733,7.65625 277.382102,8.11363636 277.674716,8.69318182 C277.96733,9.27272727 278.113636,9.93181818 278.113636,10.6704545 L278.113636,10.6704545 L270.657364,10.6707273 L270.677024,10.4446023 Z M293.079545,18.5795455 C293.840909,18.5795455 294.485795,18.4659091 295.014205,18.2386364 C295.542614,18.0113636 295.965909,17.7357955 296.284091,17.4119318 C296.602273,17.0880682 296.829545,16.7840909 296.965909,16.5 L296.965909,16.5 L297.068182,16.5 L297.068182,18.2727273 L299.079545,18.2727273 L299.079545,9.64772727 C299.079545,8.60795455 298.909091,7.77840909 298.568182,7.15909091 C298.227273,6.53977273 297.799716,6.07670455 297.285511,5.76988636 C296.771307,5.46306818 296.240057,5.25994318 295.691761,5.16051136 C295.143466,5.06107955 294.659091,5.01136364 294.238636,5.01136364 C293.579545,5.01136364 292.910511,5.10085227 292.231534,5.27982955 C291.552557,5.45880682 290.927557,5.77130682 290.356534,6.21732955 C289.785511,6.66335227 289.329545,7.28409091 288.988636,8.07954545 L288.988636,8.07954545 L290.897727,8.76136364 C291.119318,8.28409091 291.502841,7.83522727 292.048295,7.41477273 C292.59375,6.99431818 293.346591,6.78409091 294.306818,6.78409091 C295.232955,6.78409091 295.924716,7.01704545 296.382102,7.48295455 C296.839489,7.94886364 297.068182,8.60227273 297.068182,9.44318182 L297.068182,9.44318182 L297.068182,9.51136364 C297.068182,9.83522727 296.953125,10.0625 296.723011,10.1931818 C296.492898,10.3238636 296.129261,10.4161932 295.632102,10.4701705 C295.134943,10.5241477 294.488636,10.6022727 293.693182,10.7045455 C293.085227,10.7840909 292.481534,10.890625 291.882102,11.0241477 C291.28267,11.1576705 290.735795,11.3579545 290.241477,11.625 C289.747159,11.8920455 289.352273,12.2599432 289.056818,12.7286932 C288.761364,13.1974432 288.613636,13.8068182 288.613636,14.5568182 C288.613636,15.4090909 288.8125,16.1349432 289.210227,16.734375 C289.607955,17.3338068 290.144886,17.7911932 290.821023,18.1065341 C291.497159,18.421875 292.25,18.5795455 293.079545,18.5795455 Z M293.386364,16.7727273 C292.585227,16.7727273 291.924716,16.5951705 291.40483,16.2400568 C290.884943,15.8849432 290.625,15.3579545 290.625,14.6590909 C290.625,14.1477273 290.762784,13.7428977 291.038352,13.4446023 C291.31392,13.1463068 291.677557,12.921875 292.129261,12.7713068 C292.580966,12.6207386 293.068182,12.5113636 293.590909,12.4431818 C293.806818,12.4147727 294.089489,12.3792614 294.43892,12.3366477 C294.788352,12.2940341 295.149148,12.2428977 295.521307,12.1832386 C295.893466,12.1235795 296.223011,12.0525568 296.509943,11.9701705 C296.796875,11.8877841 296.982955,11.7954545 297.068182,11.6931818 L297.068182,11.6931818 L297.068182,13.5340909 C297.068182,14.0795455 296.927557,14.5994318 296.646307,15.09375 C296.365057,15.5880682 295.950284,15.9914773 295.401989,16.3039773 C294.853693,16.6164773 294.181818,16.7727273 293.386364,16.7727273 Z" id="foralimitedperiodcreatea" fill="#676767"></path>
            <path d="M311.659091,18.2727273 L311.658364,6.88672727 L314.590909,6.88636364 L314.590909,5.18181818 L311.658364,5.18272727 L311.659091,3.85227273 C311.659091,3.27651515 311.774691,2.82421437 312.005892,2.49537037 L312.098011,2.37784091 C312.390625,2.04261364 312.869318,1.875 313.534091,1.875 C313.823864,1.875 314.058239,1.90056818 314.237216,1.95170455 C314.416193,2.00284091 314.556818,2.04545455 314.659091,2.07954545 L314.659091,2.07954545 L315.238636,0.340909091 C315.085227,0.272727273 314.852273,0.198863636 314.539773,0.119318182 C314.227273,0.0397727273 313.823864,-1.42108547e-14 313.329545,-1.42108547e-14 C312.704545,-1.42108547e-14 312.110795,0.125 311.548295,0.375 C310.985795,0.625 310.528409,1 310.176136,1.5 C309.823864,2 309.647727,2.625 309.647727,3.375 L309.647727,3.375 L309.647364,5.18272727 L307.534091,5.18181818 L307.534091,6.88636364 L309.647364,6.88672727 L309.647727,18.2727273 L311.659091,18.2727273 Z M319.056818,18.2727273 L319.056818,9.98863636 C319.056818,9.39772727 319.200284,8.87073864 319.487216,8.40767045 C319.774148,7.94460227 320.166193,7.58096591 320.663352,7.31676136 C321.160511,7.05255682 321.727273,6.92045455 322.363636,6.92045455 C322.630682,6.92045455 322.884943,6.93892045 323.12642,6.97585227 C323.367898,7.01278409 323.522727,7.03977273 323.590909,7.05681818 L323.590909,7.05681818 L323.590909,5.01136364 C323.477273,5 323.309659,4.99147727 323.088068,4.98579545 C322.866477,4.98011364 322.681818,4.97727273 322.534091,4.97727273 C321.75,4.97727273 321.045455,5.17897727 320.420455,5.58238636 C319.795455,5.98579545 319.363636,6.51136364 319.125,7.15909091 L319.125,7.15909091 L318.988636,7.15909091 L318.988636,5.18181818 L317.045455,5.18181818 L317.045455,18.2727273 L319.056818,18.2727273 Z M330.681818,18.5454545 C331.568182,18.5454545 332.366477,18.4076705 333.076705,18.1321023 C333.786932,17.8565341 334.383523,17.4701705 334.866477,16.9730114 C335.349432,16.4758523 335.693182,15.8977273 335.897727,15.2386364 L335.897727,15.2386364 L333.954545,14.6931818 C333.784091,15.1477273 333.542614,15.5269886 333.230114,15.8309659 C332.917614,16.1349432 332.546875,16.3622159 332.117898,16.5127841 C331.68892,16.6633523 331.210227,16.7386364 330.681818,16.7386364 C329.869318,16.7386364 329.15625,16.5610795 328.542614,16.2059659 C327.928977,15.8508523 327.450284,15.3309659 327.106534,14.6463068 C326.762784,13.9616477 326.590909,13.125 326.590909,12.1363636 L326.595364,12.4097273 L336.102273,12.4090909 L336.102273,11.5568182 C336.102273,10.3352273 335.940341,9.30681818 335.616477,8.47159091 C335.292614,7.63636364 334.857955,6.96448864 334.3125,6.45596591 C333.767045,5.94744318 333.161932,5.57954545 332.497159,5.35227273 C331.832386,5.125 331.159091,5.01136364 330.477273,5.01136364 C329.295455,5.01136364 328.262784,5.29971591 327.379261,5.87642045 C326.495739,6.453125 325.808239,7.25426136 325.316761,8.27982955 C324.825284,9.30539773 324.579545,10.4886364 324.579545,11.8295455 C324.579545,13.1704545 324.825284,14.3451705 325.316761,15.3536932 C325.808239,16.3622159 326.509943,17.1463068 327.421875,17.7059659 C328.333807,18.265625 329.420455,18.5454545 330.681818,18.5454545 Z M326.620206,10.4446023 C326.6788,9.92045455 326.825284,9.421875 327.059659,8.94886364 C327.372159,8.31818182 327.819602,7.80539773 328.401989,7.41051136 C328.984375,7.015625 329.676136,6.81818182 330.477273,6.81818182 C331.204545,6.81818182 331.836648,6.98579545 332.37358,7.32102273 C332.910511,7.65625 333.325284,8.11363636 333.617898,8.69318182 C333.910511,9.27272727 334.056818,9.93181818 334.056818,10.6704545 L334.056818,10.6704545 L326.600364,10.6707273 L326.620206,10.4446023 Z M344.284091,18.5454545 C345.170455,18.5454545 345.96875,18.4076705 346.678977,18.1321023 C347.389205,17.8565341 347.985795,17.4701705 348.46875,16.9730114 C348.951705,16.4758523 349.295455,15.8977273 349.5,15.2386364 L349.5,15.2386364 L347.556818,14.6931818 C347.386364,15.1477273 347.144886,15.5269886 346.832386,15.8309659 C346.519886,16.1349432 346.149148,16.3622159 345.72017,16.5127841 C345.291193,16.6633523 344.8125,16.7386364 344.284091,16.7386364 C343.471591,16.7386364 342.758523,16.5610795 342.144886,16.2059659 C341.53125,15.8508523 341.052557,15.3309659 340.708807,14.6463068 C340.365057,13.9616477 340.193182,13.125 340.193182,12.1363636 L340.198364,12.4097273 L349.704545,12.4090909 L349.704545,11.5568182 C349.704545,10.3352273 349.542614,9.30681818 349.21875,8.47159091 C348.894886,7.63636364 348.460227,6.96448864 347.914773,6.45596591 C347.369318,5.94744318 346.764205,5.57954545 346.099432,5.35227273 C345.434659,5.125 344.761364,5.01136364 344.079545,5.01136364 C342.897727,5.01136364 341.865057,5.29971591 340.981534,5.87642045 C340.098011,6.453125 339.410511,7.25426136 338.919034,8.27982955 C338.427557,9.30539773 338.181818,10.4886364 338.181818,11.8295455 C338.181818,13.1704545 338.427557,14.3451705 338.919034,15.3536932 C339.410511,16.3622159 340.112216,17.1463068 341.024148,17.7059659 C341.93608,18.265625 343.022727,18.5454545 344.284091,18.5454545 Z M340.222479,10.4446023 C340.281072,9.92045455 340.427557,9.421875 340.661932,8.94886364 C340.974432,8.31818182 341.421875,7.80539773 342.004261,7.41051136 C342.586648,7.015625 343.278409,6.81818182 344.079545,6.81818182 C344.806818,6.81818182 345.43892,6.98579545 345.975852,7.32102273 C346.512784,7.65625 346.927557,8.11363636 347.22017,8.69318182 C347.512784,9.27272727 347.659091,9.93181818 347.659091,10.6704545 L347.659091,10.6704545 L340.203364,10.6707273 L340.222479,10.4446023 Z M362.625,18.5795455 C363.386364,18.5795455 364.03125,18.4659091 364.559659,18.2386364 C365.088068,18.0113636 365.511364,17.7357955 365.829545,17.4119318 C366.147727,17.0880682 366.375,16.7840909 366.511364,16.5 L366.511364,16.5 L366.613636,16.5 L366.613636,18.2727273 L368.625,18.2727273 L368.625,9.64772727 C368.625,8.60795455 368.454545,7.77840909 368.113636,7.15909091 C367.772727,6.53977273 367.34517,6.07670455 366.830966,5.76988636 C366.316761,5.46306818 365.785511,5.25994318 365.237216,5.16051136 C364.68892,5.06107955 364.204545,5.01136364 363.784091,5.01136364 C363.125,5.01136364 362.455966,5.10085227 361.776989,5.27982955 C361.098011,5.45880682 360.473011,5.77130682 359.901989,6.21732955 C359.330966,6.66335227 358.875,7.28409091 358.534091,8.07954545 L358.534091,8.07954545 L360.443182,8.76136364 C360.664773,8.28409091 361.048295,7.83522727 361.59375,7.41477273 C362.139205,6.99431818 362.892045,6.78409091 363.852273,6.78409091 C364.778409,6.78409091 365.47017,7.01704545 365.927557,7.48295455 C366.384943,7.94886364 366.613636,8.60227273 366.613636,9.44318182 L366.613636,9.44318182 L366.613636,9.51136364 C366.613636,9.83522727 366.49858,10.0625 366.268466,10.1931818 C366.038352,10.3238636 365.674716,10.4161932 365.177557,10.4701705 C364.680398,10.5241477 364.034091,10.6022727 363.238636,10.7045455 C362.630682,10.7840909 362.026989,10.890625 361.427557,11.0241477 C360.828125,11.1576705 360.28125,11.3579545 359.786932,11.625 C359.292614,11.8920455 358.897727,12.2599432 358.602273,12.7286932 C358.306818,13.1974432 358.159091,13.8068182 358.159091,14.5568182 C358.159091,15.4090909 358.357955,16.1349432 358.755682,16.734375 C359.153409,17.3338068 359.690341,17.7911932 360.366477,18.1065341 C361.042614,18.421875 361.795455,18.5795455 362.625,18.5795455 Z M362.931818,16.7727273 C362.130682,16.7727273 361.47017,16.5951705 360.950284,16.2400568 C360.430398,15.8849432 360.170455,15.3579545 360.170455,14.6590909 C360.170455,14.1477273 360.308239,13.7428977 360.583807,13.4446023 C360.859375,13.1463068 361.223011,12.921875 361.674716,12.7713068 C362.12642,12.6207386 362.613636,12.5113636 363.136364,12.4431818 C363.352273,12.4147727 363.634943,12.3792614 363.984375,12.3366477 C364.333807,12.2940341 364.694602,12.2428977 365.066761,12.1832386 C365.43892,12.1235795 365.768466,12.0525568 366.055398,11.9701705 C366.34233,11.8877841 366.528409,11.7954545 366.613636,11.6931818 L366.613636,11.6931818 L366.613636,13.5340909 C366.613636,14.0795455 366.473011,14.5994318 366.191761,15.09375 C365.910511,15.5880682 365.495739,15.9914773 364.947443,16.3039773 C364.399148,16.6164773 363.727273,16.7727273 362.931818,16.7727273 Z M377.25,18.5454545 C378.215909,18.5454545 379.06392,18.3650568 379.794034,18.0042614 C380.524148,17.6434659 381.112216,17.1548295 381.558239,16.5383523 C382.004261,15.921875 382.284091,15.2272727 382.397727,14.4545455 L382.397727,14.4545455 L380.386364,14.4545455 C380.261364,14.9318182 380.051136,15.3409091 379.755682,15.6818182 C379.460227,16.0227273 379.099432,16.2840909 378.673295,16.4659091 C378.247159,16.6477273 377.772727,16.7386364 377.25,16.7386364 C376.454545,16.7386364 375.762784,16.53125 375.174716,16.1164773 C374.586648,15.7017045 374.132102,15.1193182 373.81108,14.3693182 C373.490057,13.6193182 373.329545,12.7386364 373.329545,11.7272727 C373.329545,10.7386364 373.492898,9.87642045 373.819602,9.140625 C374.146307,8.40482955 374.603693,7.83380682 375.191761,7.42755682 C375.77983,7.02130682 376.465909,6.81818182 377.25,6.81818182 C378.136364,6.81818182 378.84233,7.04971591 379.367898,7.51278409 C379.893466,7.97585227 380.232955,8.50568182 380.386364,9.10227273 L380.386364,9.10227273 L382.397727,9.10227273 C382.284091,8.28409091 381.991477,7.56818182 381.519886,6.95454545 C381.048295,6.34090909 380.443182,5.86363636 379.704545,5.52272727 C378.965909,5.18181818 378.136364,5.01136364 377.215909,5.01136364 C376.034091,5.01136364 375.00142,5.29971591 374.117898,5.87642045 C373.234375,6.453125 372.546875,7.25142045 372.055398,8.27130682 C371.56392,9.29119318 371.318182,10.4659091 371.318182,11.7954545 C371.318182,13.1022727 371.556818,14.2642045 372.034091,15.28125 C372.511364,16.2982955 373.193182,17.0965909 374.079545,17.6761364 C374.965909,18.2556818 376.022727,18.5454545 377.25,18.5454545 Z M390.272727,18.5454545 C391.238636,18.5454545 392.086648,18.3650568 392.816761,18.0042614 C393.546875,17.6434659 394.134943,17.1548295 394.580966,16.5383523 C395.026989,15.921875 395.306818,15.2272727 395.420455,14.4545455 L395.420455,14.4545455 L393.409091,14.4545455 C393.284091,14.9318182 393.073864,15.3409091 392.778409,15.6818182 C392.482955,16.0227273 392.122159,16.2840909 391.696023,16.4659091 C391.269886,16.6477273 390.795455,16.7386364 390.272727,16.7386364 C389.477273,16.7386364 388.785511,16.53125 388.197443,16.1164773 C387.609375,15.7017045 387.15483,15.1193182 386.833807,14.3693182 C386.512784,13.6193182 386.352273,12.7386364 386.352273,11.7272727 C386.352273,10.7386364 386.515625,9.87642045 386.84233,9.140625 C387.169034,8.40482955 387.62642,7.83380682 388.214489,7.42755682 C388.802557,7.02130682 389.488636,6.81818182 390.272727,6.81818182 C391.159091,6.81818182 391.865057,7.04971591 392.390625,7.51278409 C392.916193,7.97585227 393.255682,8.50568182 393.409091,9.10227273 L393.409091,9.10227273 L395.420455,9.10227273 C395.306818,8.28409091 395.014205,7.56818182 394.542614,6.95454545 C394.071023,6.34090909 393.465909,5.86363636 392.727273,5.52272727 C391.988636,5.18181818 391.159091,5.01136364 390.238636,5.01136364 C389.056818,5.01136364 388.024148,5.29971591 387.140625,5.87642045 C386.257102,6.453125 385.569602,7.25142045 385.078125,8.27130682 C384.586648,9.29119318 384.340909,10.4659091 384.340909,11.7954545 C384.340909,13.1022727 384.579545,14.2642045 385.056818,15.28125 C385.534091,16.2982955 386.215909,17.0965909 387.102273,17.6761364 C387.988636,18.2556818 389.045455,18.5454545 390.272727,18.5454545 Z M403.295455,18.5454545 C404.477273,18.5454545 405.512784,18.2642045 406.401989,17.7017045 C407.291193,17.1392045 407.984375,16.3522727 408.481534,15.3409091 C408.978693,14.3295455 409.227273,13.1477273 409.227273,11.7954545 C409.227273,10.4318182 408.978693,9.24147727 408.481534,8.22443182 C407.984375,7.20738636 407.291193,6.41761364 406.401989,5.85511364 C405.512784,5.29261364 404.477273,5.01136364 403.295455,5.01136364 C402.113636,5.01136364 401.078125,5.29261364 400.18892,5.85511364 C399.299716,6.41761364 398.606534,7.20738636 398.109375,8.22443182 C397.612216,9.24147727 397.363636,10.4318182 397.363636,11.7954545 C397.363636,13.1477273 397.612216,14.3295455 398.109375,15.3409091 C398.606534,16.3522727 399.299716,17.1392045 400.18892,17.7017045 C401.078125,18.2642045 402.113636,18.5454545 403.295455,18.5454545 Z M403.295455,16.7386364 C402.397727,16.7386364 401.659091,16.5085227 401.079545,16.0482955 C400.5,15.5880682 400.071023,14.9829545 399.792614,14.2329545 C399.514205,13.4829545 399.375,12.6704545 399.375,11.7954545 C399.375,10.9204545 399.514205,10.1051136 399.792614,9.34943182 C400.071023,8.59375 400.5,7.98295455 401.079545,7.51704545 C401.659091,7.05113636 402.397727,6.81818182 403.295455,6.81818182 C404.193182,6.81818182 404.931818,7.05113636 405.511364,7.51704545 C406.090909,7.98295455 406.519886,8.59375 406.798295,9.34943182 C407.076705,10.1051136 407.215909,10.9204545 407.215909,11.7954545 C407.215909,12.6704545 407.076705,13.4829545 406.798295,14.2329545 C406.519886,14.9829545 406.090909,15.5880682 405.511364,16.0482955 C404.931818,16.5085227 404.193182,16.7386364 403.295455,16.7386364 Z M416.147727,18.4431818 C417.136364,18.4431818 417.954545,18.2116477 418.602273,17.7485795 C419.25,17.2855114 419.727273,16.7215909 420.034091,16.0568182 L420.034091,16.0568182 L420.170455,16.0568182 L420.170455,18.2727273 L422.181818,18.2727273 L422.181818,5.18181818 L420.170455,5.18181818 L420.170455,12.9204545 C420.170455,13.7386364 419.992898,14.4119318 419.637784,14.9403409 C419.28267,15.46875 418.84517,15.8607955 418.325284,16.1164773 C417.805398,16.3721591 417.295455,16.5 416.795455,16.5 C415.960227,16.5 415.274148,16.2159091 414.737216,15.6477273 C414.200284,15.0795455 413.931818,14.3181818 413.931818,13.3636364 L413.931818,13.3636364 L413.931818,5.18181818 L411.920455,5.18181818 L411.920455,13.5 C411.920455,14.6136364 412.102273,15.5355114 412.465909,16.265625 C412.829545,16.9957386 413.329545,17.5411932 413.965909,17.9019886 C414.602273,18.2627841 415.329545,18.4431818 416.147727,18.4431818 Z M427.5,18.2727273 L427.5,10.3977273 C427.5,9.63636364 427.644886,8.98863636 427.934659,8.45454545 C428.224432,7.92045455 428.620739,7.51420455 429.12358,7.23579545 C429.62642,6.95738636 430.198864,6.81818182 430.840909,6.81818182 C431.772727,6.81818182 432.505682,7.10653409 433.039773,7.68323864 C433.573864,8.25994318 433.840909,9.0625 433.840909,10.0909091 L433.840909,10.0909091 L433.840909,18.2727273 L435.852273,18.2727273 L435.852273,9.95454545 C435.852273,8.84090909 435.667614,7.91903409 435.298295,7.18892045 C434.928977,6.45880682 434.411932,5.91335227 433.747159,5.55255682 C433.082386,5.19176136 432.306818,5.01136364 431.420455,5.01136364 C430.431818,5.01136364 429.625,5.21448864 429,5.62073864 C428.375,6.02698864 427.909091,6.5625 427.602273,7.22727273 L427.602273,7.22727273 L427.431818,7.22727273 L427.431818,5.18181818 L425.488636,5.18181818 L425.488636,18.2727273 L427.5,18.2727273 Z M443.590909,18.4431818 C443.965909,18.4431818 444.275568,18.4161932 444.519886,18.3622159 C444.764205,18.3082386 444.954545,18.2556818 445.090909,18.2045455 L445.090909,18.2045455 L444.681818,16.3977273 C444.596591,16.4147727 444.482955,16.4360795 444.340909,16.4616477 C444.198864,16.4872159 444.017045,16.5 443.795455,16.5 C443.5,16.5 443.22017,16.453125 442.955966,16.359375 C442.691761,16.265625 442.475852,16.078125 442.308239,15.796875 C442.140625,15.515625 442.056818,15.0909091 442.056818,14.5227273 L442.056818,14.5227273 L442.056364,6.88672727 L444.852273,6.88636364 L444.852273,5.18181818 L442.056364,5.18272727 L442.056818,2.04545455 L440.045455,2.04545455 L440.045364,5.18272727 L438.068182,5.18181818 L438.068182,6.88636364 L440.045364,6.88672727 L440.045455,15.0681818 C440.045455,15.7449495 440.185746,16.3184624 440.46633,16.7887205 L440.578125,16.9602273 C440.933239,17.4602273 441.382102,17.8323864 441.924716,18.0767045 C442.46733,18.3210227 443.022727,18.4431818 443.590909,18.4431818 Z M454.465909,17.7272727 L465.443182,12.1363636 L465.443182,10.7727273 L454.465909,5.18181818 L454.465909,7.36363636 L462.817364,11.3877273 L462.817364,11.5217273 L454.465909,15.5454545 L454.465909,17.7272727 Z M469.909091,17.7272727 L480.886364,12.1363636 L480.886364,10.7727273 L469.909091,5.18181818 L469.909091,7.36363636 L478.261364,11.3877273 L478.261364,11.5217273 L469.909091,15.5454545 L469.909091,17.7272727 Z" id="freeaccount&gt;&gt;" fill="#6774B8"></path>
            <polygon id="Decoration" fill="#6774B8" points="306.920455 20.5909091 306.920455 22.2272727 445.690455 22.2272727 445.690455 20.5909091"></polygon>
        </g>
    </g>
</svg>